<svg xmlns="http://www.w3.org/2000/svg" viewBox="0 0 322 202"><defs><style>.cls-1{fill:#fff;}.cls-2{fill:#d2063a;}</style></defs><title>img-logo04</title><g id="レイヤー_2" data-name="レイヤー 2"><g id="main"><rect class="cls-1" width="322" height="202"/><path class="cls-2" d="M135.58,101c0,8.06,6,14,15.95,14a28,28,0,0,0,12.28-2.58l3.74,5.09c-5.17,2.73-10.14,4.17-17.77,4.17-15.92,0-27.62-7.67-27.62-20.68h0c0-13,11.7-20.68,27.62-20.68,7.63,0,12,1.11,17.39,3.42l-3.82,5.86A23.2,23.2,0,0,0,151.52,87c-10,0-15.95,5.94-15.95,14"/><path class="cls-2" d="M196.31,115.25c-8.47,0-13.15-6.37-13.15-14.26s4.68-14.26,13.15-14.26,13.16,6.37,13.16,14.26-4.69,14.26-13.16,14.26m0-34.94c-15.41,0-26.52,7.67-26.52,20.69s11.11,20.69,26.52,20.69S222.84,114,222.84,101s-11.12-20.69-26.53-20.69"/><polygon class="cls-2" points="262.9 103.99 262.9 120.64 275.64 120.64 275.64 81.35 262.9 81.35 262.9 96.34 243.44 96.34 243.44 81.35 230.73 81.35 230.73 120.64 243.44 120.64 243.44 103.99 262.9 103.99"/><rect class="cls-2" x="101.07" y="81.35" width="13.41" height="39.29"/><path class="cls-2" d="M62.6,99.34v3.76A100.08,100.08,0,0,1,80,120.64h15c-5.23-6.14-13.24-13.43-19.14-17.1,6.93-.28,14.65-3.09,14.65-11,0-10.2-10.91-12.07-21.93-12.07-9,0-17.3.41-22.28.82v39.39H58.89V87.18a78.71,78.71,0,0,1,9.81-.53c6.45,0,9.71,2.13,9.71,5.85,0,3.18-1.35,7-15.81,6.84"/></g></g></svg>